<?xml version="1.0" encoding="UTF-8"?><svg id="uuid-61f374ab-468f-4f73-a11a-9fb06110f9f2" xmlns="http://www.w3.org/2000/svg" viewBox="0 0 291.49 343">
<title>Arsenal FC logo - Brandlogos.net</title><path d="M145.74.36C111.03.36,47.04,9.34,14.44,28.29c-42.91,152.13,15.45,255.59,131.3,314.31,115.85-58.72,174.21-162.69,131.3-314.31C244.42,9.34,180.45.36,145.74.36h0Z" style="fill:#9c824a; stroke:#9c824a; stroke-miterlimit:254.65; stroke-width:.72px;"/><path d="M145.74,10.14c-34.1,0-72.49,4.36-122.78,24.89-37.43,132.8,5.99,239.24,122.78,297.25,116.78-58.01,160.17-164.45,122.74-297.25-50.28-20.52-88.64-24.89-122.74-24.89h0Z" style="fill:#023474; stroke:#023474; stroke-miterlimit:254.65; stroke-width:.72px;"/><path d="M145.58,10.01c-33.94,0-70.38,5.03-103.26,17.48-34.1,135.97-8.94,235.26,103.45,304.69l-.19-322.17h0ZM145.78,332.18c112.39-69.43,137.52-168.72,103.42-304.69-32.88-12.44-69.29-17.48-103.23-17.48l-.19,322.17h0Z" style="fill:#fff; stroke:#fff; stroke-miterlimit:254.65; stroke-width:.72px;"/><path d="M145.78,9.98c-34.13,0-68.68,5.16-96.75,14.94-35.32,142.52-6.95,238.75,96.78,304.53l-.03-319.47h0Z" style="fill:#ef0107; stroke:#ef0107; stroke-miterlimit:254.65; stroke-width:.72px;"/><path d="M145.84,9.98c34.13,0,68.68,5.16,96.78,14.94,35.32,142.52,6.95,238.75-96.82,304.53l.03-319.47h0Z" style="fill:#db0007; stroke:#db0007; stroke-miterlimit:254.65; stroke-width:.72px;"/><path d="M101.68,225.03c-15.06,10.33-27.05,14.05-40.96,17.74l-8.4-13.05c12.79-6.48,26.02-15.49,39.36-28.54,1.12,12.67,7.02,21.64,10,23.86h0Z" style="fill:#fff;"/><path d="M99.63,224.49c-14.29,9.81-34.2,16.64-56.98,19.98l-4.65-7.05c19.52-7.31,38.36-18.22,52.98-33.54,2.21,9.81,5.58,16.32,8.65,20.62h0Z" style="fill:#9c824a;"/><path d="M61.55,164.55c0,5.48-4.42,9.91-9.9,9.91s-9.93-4.43-9.93-9.91h0c0-5.48,4.45-9.91,9.93-9.91s9.9,4.42,9.9,9.91h0Z" style="fill:#fff;"/><path d="M60.5,145.02v37.39h29.45c1.92-12.54,9.04-25.85,25.16-37.39h-54.61" style="fill:#fff;"/><path d="M61.68,182.41c-6.57.1-11.99-8.15-12.08-18.47-.06-10.33,5.19-18.79,11.79-18.92h.22" style="fill:#fff;"/><path d="M57.39,164.55c0,4.23-3.08,7.63-6.86,7.63s-6.86-3.4-6.86-7.63h0c0-4.23,3.08-7.63,6.86-7.63,3.78,0,6.86,3.4,6.86,7.63h0Z" style="fill:#9c824a;"/><path d="M61.3,146.98v33.61h29.23c2.31-11.16,7.98-23.02,22.14-33.61h-51.37" style="fill:#9c824a;"/><path d="M62.39,180.59c-6.19.13-11.25-7.31-11.34-16.58-.06-9.27,4.9-16.9,11.09-17.03h.19" style="fill:#9c824a;"/><path d="M201.67,191.17c0,31.2-25.25,56.47-56.44,56.47s-56.44-25.27-56.44-56.47h0c0-31.2,25.29-56.47,56.44-56.47,31.18,0,56.44,25.27,56.44,56.47h0Z" style="fill:#fff;"/><path d="M198.72,191.17c0,29.57-23.94,53.52-53.49,53.52s-53.46-23.95-53.46-53.52h0c0-29.53,23.94-53.52,53.46-53.52,29.55,0,53.49,23.96,53.49,53.52h0Z" style="fill:#9c824a;"/><path d="M189.84,191.17c0,24.66-19.97,44.64-44.61,44.64s-44.58-19.98-44.58-44.64h0c0-24.66,19.97-44.64,44.58-44.64,24.64,0,44.61,19.98,44.61,44.64h0Z" style="fill:#fff;"/><path d="M186.89,191.17c0,23.02-18.65,41.66-41.66,41.66s-41.63-18.63-41.63-41.66h0c0-23.02,18.65-41.66,41.63-41.66,23.01,0,41.66,18.63,41.66,41.66h0Z" style="fill:#9c824a;"/><path d="M162.6,191.17c.03,9.59-7.76,17.38-17.34,17.41-9.61,0-17.4-7.79-17.4-17.38v-.03c0-9.59,7.76-17.38,17.37-17.38,9.58-.03,17.37,7.76,17.37,17.35v.03h0Z" style="fill:#fff;"/><path d="M160.55,191.17c0,8.47-6.83,15.33-15.29,15.33s-15.32-6.83-15.35-15.3v-.03c0-8.47,6.86-15.33,15.32-15.33s15.32,6.83,15.32,15.3v.03h0Z" style="fill:#9c824a;"/><path d="M153.11,191.17c0,4.33-3.53,7.86-7.88,7.89-4.33,0-7.85-3.53-7.85-7.89h0c0-4.36,3.53-7.86,7.85-7.89,4.36,0,7.88,3.53,7.88,7.89h0Z" style="fill:#fff;"/><path d="M150.93,191.17c0,3.14-2.53,5.71-5.7,5.71s-5.7-2.53-5.7-5.71h0c0-3.14,2.56-5.71,5.7-5.71,3.14,0,5.7,2.53,5.7,5.71h0Z" style="fill:#9c824a;"/><rect x="139.24" y="148.55" width="11.86" height="27.67" style="fill:#fff;"/><rect x="141.1" y="144.57" width="8.17" height="35.18" style="fill:#9c824a;"/><polygon points="178.27 164.17 184.74 174.11 161.54 189.18 155.1 179.24 178.27 164.17" style="fill:#fff;"/><polygon points="182.6 163.56 187.05 170.42 157.57 189.6 153.11 182.7 182.6 163.56" style="fill:#9c824a;"/><polygon points="128.6 193.41 134.94 203.42 111.58 218.24 105.23 208.2 128.6 193.41" style="fill:#fff;"/><polygon points="132.57 192.84 136.96 199.76 107.29 218.59 102.89 211.66 132.57 192.84" style="fill:#9c824a;"/><rect x="139.24" y="207.04" width="11.86" height="27.67" style="fill:#fff;"/><rect x="141.1" y="203.1" width="8.17" height="35.15" style="fill:#9c824a;"/><path d="M133.66,204.09c1.6,1.35,3.36,2.57,5.58,3.5l-.06,24.69c-11.18-1.44-19.65-6.96-26.05-14.81l20.58-13.37" style="fill:#ef0107; stroke:#ef0107; stroke-miterlimit:254.65; stroke-width:.28px;"/><path d="M156.77,204.19c-1.63,1.31-3.37,2.57-5.58,3.46l.03,24.69c11.18-1.44,19.65-6.96,26.06-14.82l-20.54-13.34" style="fill:#db0007; stroke:#db0007; stroke-miterlimit:254.65; stroke-width:.28px;"/><path d="M162.38,193.83l24.48-2.95c.19,6.12-1.28,11.51-3.37,16.68l-21.18-13.72" style="fill:#db0007;"/><path d="M162.41,193.73c.1-.38.06-.74.22-1.86l24.16-3.14c.1,1.12.03,1.54,0,2.05l-24.39,2.95h0Z" style="fill:#fff; stroke:#fff; stroke-miterlimit:254.65; stroke-width:.28px;"/><path d="M198.17,173.37h31.7c-.99,3.75-1.96,7.57-6.51,9.27-7.27,2.73-22.37,5.36-22.37,5.36-.29-4.14-1.22-9.75-2.82-14.62h0Z" style="fill:#fff;"/><path d="M176.09,144.48l82.81.1-2.92,30.27-56.56,2.95c-3.04-13.53-13.33-26.46-23.33-33.32h0Z" style="fill:#fff;"/><path d="M179.04,146.63l105.73.1-4.04,24.66-82.04,4.04c-3.24-12.25-10.64-21.2-19.65-28.8h0Z" style="fill:#9c824a;"/><path d="M198.17,173.37h29.19c-.96,3.33-1.63,6.38-5.93,7.89-6.83,2.44-20.57,4.36-20.57,4.36-.58-4.01-1.41-8.08-2.69-12.25h0Z" style="fill:#9c824a;"/><path d="M166.13,100.51c0,1.35-.29,5.04-.45,6.06h16.41c-1-4.36-1.44-10.42-1.57-15.1,0,.32-.29-9.4-.29-9.4,0-.67.29-1.7.7-2.02.58-.67,1.15-.67,1.86-.67.7-.32,1.99-.32,2.15,2.34l.42,10.07c.16,4.71.16,11.1-.42,14.78h15.8c-.13-1.35-.58-4.71-.71-5.71,1.99,4.36,6.28,6.7,11.99,6.7,3.4,0,5.99-1.32,7.98-2.66,0,.32.83,1.67.83,1.67h29.36c-1.28-4.36-2.12-10.42-2.56-15.1l-4.13-32.9-15.09-2.69c1.28,4.36,2.15,10.74,2.69,15.1l2.31,21.17c.42,3.69.71,7.73.71,12.09v.32l-.58-1.35c-1.15-2.69-1.7-6.03-2.15-11.06l-.54-6.73c-.87-10.74-6.7-15.43-19.55-15.43-2.11,0-7.53.32-10.83,1.35l.87,12.06,3.43-1.99c2.85-1.7,4.97-2.37,7.53-2.37,2.02,0,3.3.67,3.88,2.02-2.43.35-5.13,1.03-8.14,2.34-4.55,2.02-7.4,5.07-8.69,8.4v-.32l-.45-11.1c-.26-7.06-4.84-11.74-11.83-11.74-3.11,0-5.96.99-8.52,2.69-.16-.35-.29-.67-.45-1.03l-.58-1.35-13.11-.67c.58,2.37,1.44,9.08,1.57,11.42-.71-3.34-2.56-7.02-5.99-9.72-2.69-1.7-6.12-2.69-9.68-2.69-4.84,0-9.84,2.02-13.11,5.39-3.43,3.33-5.13,8.05-5.29,13.41-1.28-1.35-2.98-2.66-4.97-3.33l-5.99-3.05h-.29c-1.41-.67-1.57-1-1.57-1.32.16-.67,1.57-1.35,3.43-1.35,2.56,0,6.12,1.35,8.97,3.02l.29-10.74c-2.15-1.03-5.13-1.67-9.42-1.67-2.28,0-6.54.32-10.26,2.34-.99.67-1.86,1.35-2.69,2.02l.13-3.05c-3.43-.64-7.11-.64-11.67,3.72-.16-.35-.45-2.02-.74-2.69l-14.1.67c.99,4.01,1.15,9.72.87,14.75l-.29,5.39v.67c-.16,2.69-.29,5.71-.58,8.4-1.15-3.72-2.4-8.75-3.43-12.76l-6.99-31.56-19.93,3.01c.13.32.42,1.35.58,2.34.13,1.35.13,4.04-1.73,9.75-3.27,9.04-7.82,22.83-12.24,32.55-.58,1.35-1.73,3.37-1.73,3.37h15.54c.29-2.34,1.28-6.38,2.28-9.4,2.15,0,7.69,0,10.25-.35.58,2.37,1.15,5.39,1.31,7.41l.26,2.34h31.09c-.71-5.04-.42-11.74-.16-15.46.29-4.36,1.15-7.38,3.01-9.04,1.41-1.7,2.98-2.02,4.13-2.02-.16,6.03,3.69,8.72,7.11,10.39l6.12,3.05c2.15,1.35,2.15,1.67,2.15,2.34-.13.99-1.86,1.35-3.43,1.35-3.27,0-7.69-2.02-12.53-7.38l-.29,14.08c3.85,2.02,8.69,3.01,12.98,3.01,7.11,0,14.68-3.34,16.67-9.72,3.56,6.7,10.54,9.72,17.4,9.72,6.12,0,10.67-1.98,14.68-6.38h0ZM59.09,86.75c.87-2.34,1.57-4.36,2.85-8.05.87,3.69,1.28,6.03,1.7,7.73-1.7.32-2.56.32-4.55.32h0ZM146.32,83.06c0-4.68,1.7-6.7,3.4-6.7.58,0,1.86-.35,2.43,2.02.29.99.42,1.67.42,1.99,0,1.35-.7,1.7-1.57,1.7v.32s-2.4.67-4.68,1.7c0-.35,0-.67,0-1.03h0ZM162.57,92.81c-3.01,2.66-5.16,4.36-8.72,4.36-2.85-.35-4.55-2.02-5.54-4.36,2.98-1.03,14.52-5.39,17.82-6.73,0,2.69.13,5.71.13,5.71v5.71l-3.69-4.68h0ZM215.7,97.5c-2.69,0-3.27-2.02-3.4-3.34.13-1.35.54-3.37,4.84-4.71.13,1.67.29,3.01.29,3.01v1.35c.13,1.03.13,2.02.26,3.01-.54.35-1.25.35-1.99.67" style="fill:#9c824a;"/><path d="M129.33,70.97c-1.41-.32-3.56-.99-6.99-.99-2.69,0-6.25.67-8.97,2.02-3.14,2.02-5.42,4.68-5.54,7.73-.29,4.68,2.15,6.7,5.7,8.37,2.4,1.35,4.71,2.69,6.12,3.37,1.86.99,3.56,2.02,3.43,4.36-.16,2.34-2.31,4.04-5.86,4.04-2.98,0-7.24-2.02-10.26-4.71l-.13,7.06c2.56,1.35,6.7,2.02,10.54,2.02,6.54,0,14.68-3.01,14.81-10.42.16-5.71-3.85-7.73-6.25-9.04-2.44-1.03-4.87-2.37-5.99-2.69-1.15-.67-3.43-1.35-3.27-4.04.26-2.34,2.98-3.37,5.83-3.37,2.4,0,4.84.67,6.7,1.7" style="fill:#fff;"/><path d="M70.78,58.56l-15.13,2.02c.29,2.02-.29,6.03-1.86,10.74-3.11,9.04-8.24,24.15-12.24,32.9h9.42c.54-3.05,1.25-5.71,2.69-9.4l13.97-.35c.54,2.69,1.57,7.06,1.7,9.75h12.69c-1.57-3.72-3.56-11.42-4.84-16.8l-6.41-28.86h0ZM55.66,89.09l6.86-19.79,4.13,19.47" style="fill:#fff;"/><path d="M106.97,70.97l-.29,6.73c-2.28-.35-5.13.32-7.4,2.66-1.99,2.02-3.27,5.04-3.56,10.42-.29,4.36-.42,9.4-.16,13.44h-10.67c.71-4.04.99-8.72,1.12-13.12l.29-5.36c.29-4.36.29-8.72-.42-12.76l9.42-.32c.42,1.35.71,3.69.55,6.03,4.13-6.38,8.14-7.73,11.12-7.73" style="fill:#fff;"/><path d="M241.37,60.58l-9.71-1.7c.99,4.39,1.28,7.41,1.86,11.77l2.28,21.13c.45,4.36.87,8.4.74,12.44h10.54c-1.03-4.04-1.44-8.08-1.86-12.44" style="fill:#fff;"/><path d="M197.89,104.23c-.55-4.04-.83-8.08-1-12.44l-.42-11.06c-.29-6.06-3.72-9.4-9.42-9.4-3.11,0-6.83.99-9.97,5.03-.13-1.03-.58-3.69-1.15-5.03l-8.52-.35c.7,4.04.99,8.05,1.12,12.41l.16,8.4c.13,4.36,0,8.4-.29,12.44h10.67c-.55-4.04-.83-8.08-.99-12.44l-.29-9.4c-.13-3.37,2.44-5.71,5-5.71,2.98,0,4.42,2.02,4.55,5.04l.45,10.07c.13,4.36.13,8.4-.16,12.44" style="fill:#fff;"/><path d="M231.25,104.23c-1.28-3.37-1.99-7.41-2.28-11.77l-.58-6.7c-.58-8.05-3.97-13.44-17.11-13.44-2.28,0-5.54.35-8.24.99l.42,6.06c2.69-1.67,5.42-3.01,8.84-3.01s6.54,1.67,6.83,6.7c-3.43.35-6.57.99-10.13,2.69-3.97,1.67-8.11,5.04-7.69,10.39.42,6.06,5,8.75,10.7,8.75,4.42,0,7.4-2.02,9.1-4.04.29,1.35.74,2.34,1.15,3.37h8.97ZM215.7,99.87c-3.14,0-5.7-1.7-5.83-5.39,0-3.69,2.28-6.7,9.55-7.73l.42,5.71c.16,2.02.16,3.37.45,5.04-1.02,1.35-2.72,2.02-4.58,2.37" style="fill:#fff;"/><path d="M158.56,72c-2.43-1.7-5.29-2.37-8.27-2.37-6.99,0-16.25,5.04-15.96,17.8.13,13.08,10.13,17.12,17.11,17.12,6.12,0,9.84-2.34,12.82-5.36l-2.15-3.05c-1.57,1.35-4.13,3.37-8.27,3.37-4.42-.32-7.24-3.37-8.81-8.05l19.36-7.06c-.58-6.38-2.85-10.07-5.83-12.41h0ZM151.86,84.41l-7.69,3.01c-.16-1.35-.29-2.69-.29-4.36,0-7.73,4.26-9.08,5.7-9.08,2.28-.32,4.26,1.03,5,3.72.83,3.02.55,5.71-2.72,6.7" style="fill:#fff;"/><polygon points="106.26 171.83 112.77 161.92 135.9 177.06 129.4 187 106.26 171.83" style="fill:#fff;"/><polygon points="104.11 168.43 108.6 161.57 137.99 180.84 133.5 187.71 104.11 168.43" style="fill:#9c824a;"/><polygon points="155.65 203.39 162.15 193.45 185.29 208.61 178.78 218.56 155.65 203.39" style="fill:#fff;"/><polygon points="153.5 199.99 157.98 193.13 187.37 212.4 182.89 219.23 153.5 199.99" style="fill:#9c824a;"/></svg>